# xmcd CD database file
# Copyright (C) 1993-1998 Ti Kan
# 
# Track frame offsets:
#     150
#     14535
#     29502
#     42755
#     57467
#     71862
#     86692
#     103657
#     124097
#     141670
#     154050
#     168075
#     182855
#     195060
# 
# Disc length: 2856 seconds
# 
# Revision: 1
# Processed by: cddbd v1.4b41PL1 Copyright (c) Steve Scherf et al.
# Submitted via: DiscPlay 4.0.4
# 
DISCID=c30b260e
DTITLE=Peter Hofmann - Country Roads
DYEAR=1900
DGENRE=
TTITLE0=Take Me Home, Country Roads
TTITLE1=Goodbye Marie
TTITLE2=The Most Beautiful Girl
TTITLE3=Whatever Way The Wind Blows
TTITLE4=One For The Ages
TTITLE5=Oh, Darlin  (Why Don t You Care For Me No More)
TTITLE6=The Wind Beneath My Wings
TTITLE7=Please Come To Boston
TTITLE8=You re Taken
TTITLE9=New Way (To Light Up An Old Flame)
TTITLE10=Your Love Stays With Me
TTITLE11=The Gambler
TTITLE12=Tulsa Time
TTITLE13=Once Upon A Lifetime
EXTD=
EXTT0=
EXTT1=
EXTT2=
EXTT3=
EXTT4=
EXTT5=
EXTT6=
EXTT7=
EXTT8=
EXTT9=
EXTT10=
EXTT11=
EXTT12=
EXTT13=
PLAYORDER=
